{"title":"Love.At.First.Hiccup.2009.720p.BRRip.H264.Feel-Free","uid":5974620,"size":1462317202,"categoryP":"video","categoryS":"hd___movies","magnet":"?xt=urn:btih:3201cea4764a7bb9b051906179ae8cd2dae7f9ff&amp;dn=Love.At.First.Hiccup.2009.720p.BRRip.H264.Feel-Free&amp;tr=udp%3A%2F%2Ftracker.openbittorrent.com%3A80&amp;tr=udp%3A%2F%2Fopen.demonii.com%3A1337&amp;tr=udp%3A%2F%2Ftracker.coppersurfer.tk%3A6969&amp;tr=udp%3A%2F%2Fexodus.desync.com%3A6969","seeders":2,"leechers":0,"uploader":"deffjam555","files":9,"time":1290411662,"description":"Genre:Comedy\nLanguage:English\nIMDb:http://www.imdb.com/title/tt1307065/\nSource:1080p.BluRay.x264-KaKa\n\n\nGeneral\nComplete name :Love.At.First.Hiccup.2009.720p.BRRip.H264.Feel-Free\nFormat : MPEG-4\nFormat profile : Base Media\nCodec ID : mp42\nFile size : 1.36 GiB\nDuration : 1h 29mn\nOverall bit rate : 2 165 Kbps\nVideo #1\nCodec ID : avc1\nCodec ID/Info : Advanced Video Coding\nDuration : 1h 29mn\nBit rate mode : Variable\nBit rate : 1 686 Kbps\nWidth : 1 280 pixels\nHeight : 720 pixels\nDisplay aspect ratio : 16:9\nFrame rate mode : Constant\nFrame rate : 23.976 fps\nResolution : 24 bits\nColorimetry : 4:2:0\nScan type : Progressive\nBits/(Pixel*Frame) : 0.076\nStream size : 1.06 GiB (78%)\nAudio #2\nID : 2\nFormat : AAC\nFormat/Info : Advanced Audio Codec\nFormat version : Version 4\nFormat profile : LC\nFormat settings, SBR : No\nCodec ID : 40\nDuration : 1h 29mn\nBit rate mode : Constant\nBit rate : 475 Kbps\nNominal bit rate : 480 Kbps\nChannel(s) : 6 channels\nChannel positions : Front: L C R, Rear: L R, LFE\nSampling rate : 48.0 KHz\nResolution : 16 bits\nStream size : 305 MiB (22%)\nPlot:\nA high school romantic comedy about freshman Victor who has contracted a case of Anya-itis, (acute and incurable love passion for high school senior Anja.) And why shouldn't he?\n\n\nscreens\n &lt;a href=&quot;\nhttp://rapidhdd.com/images/612229vlcsnap-2010-11-22-07h49m54s133.png&quot; rel=&quot;nofollow&quot; target=&quot;_NEW&quot;&gt;\nhttp://rapidhdd.com/images/612229vlcsnap-2010-11-22-07h49m54s133.png&lt;/a&gt; &lt;a href=&quot;\nhttp://www.rapidhdd.com/images/647003vlcsnap-2010-11-22-07h50m33s9.png&quot; rel=&quot;nofollow&quot; target=&quot;_NEW&quot;&gt;\nhttp://www.rapidhdd.com/images/647003vlcsnap-2010-11-22-07h50m33s9.png&lt;/a&gt; &lt;a href=&quot;\nhttp://www.rapidhdd.com/images/669300vlcsnap-2010-11-22-07h50m46s155.png&quot; rel=&quot;nofollow&quot; target=&quot;_NEW&quot;&gt;\nhttp://www.rapidhdd.com/images/669300vlcsnap-2010-11-22-07h50m46s155.png&lt;/a&gt; &lt;a href=&quot;\nhttp://www.rapidhdd.com/images/921970vlcsnap-2010-11-22-07h51m21s240.png&quot; rel=&quot;nofollow&quot; target=&quot;_NEW&quot;&gt;\nhttp://www.rapidhdd.com/images/921970vlcsnap-2010-11-22-07h51m21s240.png&lt;/a&gt; &lt;a href=&quot;\nhttp://www.rapidhdd.com/images/619790vlcsnap-2010-11-22-07h51m58s103.png&quot; rel=&quot;nofollow&quot; target=&quot;_NEW&quot;&gt;\nhttp://www.rapidhdd.com/images/619790vlcsnap-2010-11-22-07h51m58s103.png&lt;/a&gt;\n","torrent":{"xt":"urn:btih:3201cea4764a7bb9b051906179ae8cd2dae7f9ff","amp;dn":"Love.At.First.Hiccup.2009.720p.BRRip.H264.Feel-Free","amp;tr":["udp%3A%2F%2Ftracker.openbittorrent.com%3A80","udp%3A%2F%2Fopen.demonii.com%3A1337","udp%3A%2F%2Ftracker.coppersurfer.tk%3A6969","udp%3A%2F%2Fexodus.desync.com%3A6969"],"infoHash":"3201cea4764a7bb9b051906179ae8cd2dae7f9ff","infoHashBuffer":{"type":"Buffer","data":[50,1,206,164,118,74,123,185,176,81,144,97,121,174,140,210,218,231,249,255]},"announce":[],"urlList":[]}}